
<svg xmlns="http://www.w3.org/2000/svg" version="1.1" xmlns:xlink="http://www.w3.org/1999/xlink" preserveAspectRatio="none" x="0px" y="0px" width="320px" height="80px" viewBox="0 0 320 80">
<defs>
<linearGradient id="Gradient_1" gradientUnits="userSpaceOnUse" x1="-25.125" y1="44.05" x2="361.625" y2="44.05" spreadMethod="pad">
<stop  offset="0%" stop-color="#91F546"/>

<stop  offset="100%" stop-color="#00D0F0"/>
</linearGradient>

<g id="Mask_1_MASK_0_FILL">
<path fill="#FFFFFF" stroke="none" d="
M 47.4 33.25
Q 47.4 32.85 47.1 32.55 46.8 32.25 46.4 32.25 46 32.25 45.7 32.55 45.4 32.85 45.4 33.25
L 45.4 63.75
Q 45.3 70.75 36.8 70.75
L 25.05 70.75
Q 16.55 70.75 16.45 63.75
L 16.45 33.25
Q 16.45 32.85 16.15 32.55 15.85 32.25 15.45 32.25 15.05 32.25 14.75 32.55 14.45 32.85 14.45 33.25
L 14.45 63.75
Q 14.35 72.75 25.05 72.75
L 36.8 72.75
Q 47.5 72.75 47.4 63.75
L 47.4 33.25
M 90.25 72.75
Q 90.65 72.75 90.95 72.45 91.25 72.15 91.25 71.75
L 91.25 41.25
Q 91.35 32.25 80.65 32.25
L 69.9 32.25
Q 59.2 32.25 59.3 41.25
L 59.3 71.75
Q 59.3 72.15 59.6 72.45 59.9 72.75 60.3 72.75 60.7 72.75 61 72.45 61.3 72.15 61.3 71.75
L 61.3 41.25
Q 61.4 34.25 69.9 34.25
L 80.65 34.25
Q 89.15 34.25 89.25 41.25
L 89.25 71.75
Q 89.25 72.15 89.55 72.45 89.85 72.75 90.25 72.75
M 104.15 32.25
Q 103.75 32.25 103.45 32.55 103.15 32.85 103.15 33.25
L 103.15 71.75
Q 103.15 72.15 103.45 72.45 103.75 72.75 104.15 72.75 104.55 72.75 104.85 72.45 105.15 72.15 105.15 71.75
L 105.15 33.25
Q 105.15 32.85 104.85 32.55 104.55 32.25 104.15 32.25
M 142.95 32.2
L 142.95 19.15
Q 143 10.15 133.15 10.15
L 118.05 10.15
Q 117.65 10.15 117.35 10.45 117.05 10.75 117.05 11.15
L 117.05 71.75
Q 117.05 72.15 117.35 72.45 117.65 72.75 118.05 72.75
L 138.95 72.75
Q 148.8 72.75 148.75 63.75
L 148.75 48.2
Q 148.8 39.8 140.2 39.25 142.95 37 142.95 32.2
M 133.15 12.15
Q 140.9 12.15 140.95 19.15
L 140.95 32.2
Q 140.9 39.05 133.5 39.2
L 119.05 39.2 119.05 12.15 133.15 12.15
M 138.95 41.2
Q 146.7 41.2 146.75 48.2
L 146.75 63.75
Q 146.7 70.75 138.95 70.75
L 119.05 70.75 119.05 41.2 138.95 41.2
M 162.65 11.15
Q 162.65 10.75 162.35 10.45 162.05 10.15 161.65 10.15 161.25 10.15 160.95 10.45 160.65 10.75 160.65 11.15
L 160.65 63.75
Q 160.65 67.45 163.3 70.1 165.95 72.75 169.65 72.75
L 175.95 72.75
Q 176.35 72.75 176.65 72.45 176.95 72.15 176.95 71.75 176.95 71.35 176.65 71.05 176.35 70.75 175.95 70.75
L 169.65 70.75
Q 166.75 70.75 164.7 68.7 162.65 66.65 162.65 63.75
L 162.65 11.15
M 223.65 41.25
Q 223.65 32.25 214.65 32.25
L 197.85 32.25
Q 188.85 32.25 188.85 41.25
L 188.85 63.75
Q 188.85 72.75 197.85 72.75
L 214.65 72.75
Q 223.65 72.75 223.65 63.75
L 223.65 41.25
M 214.65 34.25
Q 221.65 34.25 221.65 41.25
L 221.65 63.75
Q 221.65 70.75 214.65 70.75
L 197.85 70.75
Q 190.85 70.75 190.85 63.75
L 190.85 41.25
Q 190.85 34.25 197.85 34.25
L 214.65 34.25
M 244.55 34.25
L 258.65 34.25
Q 265.65 34.25 265.65 41.25 265.65 41.65 265.95 41.95 266.25 42.25 266.65 42.25 267.05 42.25 267.35 41.95 267.65 41.65 267.65 41.25 267.65 32.25 258.65 32.25
L 244.55 32.25
Q 235.55 32.25 235.55 41.25
L 235.55 63.75
Q 235.55 72.75 244.55 72.75
L 258.65 72.75
Q 267.65 72.75 267.65 63.75 267.65 63.35 267.35 63.05 267.05 62.75 266.65 62.75 266.25 62.75 265.95 63.05 265.65 63.35 265.65 63.75 265.65 70.75 258.65 70.75
L 244.55 70.75
Q 237.55 70.75 237.55 63.75
L 237.55 41.25
Q 237.55 34.25 244.55 34.25
M 304.7 32.25
L 296.55 32.25
Q 289.55 32.25 284.55 37.25 282.7 39.1 281.55 41.2
L 281.55 11.15
Q 281.55 10.75 281.25 10.45 280.95 10.15 280.55 10.15 280.15 10.15 279.85 10.45 279.55 10.75 279.55 11.15
L 279.55 71.75
Q 279.55 72.15 279.85 72.45 280.15 72.75 280.55 72.75 280.95 72.75 281.25 72.45 281.55 72.15 281.55 71.75
L 281.55 63.8
Q 282.7 65.9 284.55 67.75 289.55 72.75 296.55 72.75
L 304.7 72.75
Q 305.1 72.75 305.4 72.45 305.7 72.15 305.7 71.75 305.7 71.35 305.4 71.05 305.1 70.75 304.7 70.75
L 296.55 70.75
Q 290.35 70.75 285.95 66.35 281.7 62.1 281.55 56.15
L 281.55 48.85
Q 281.7 42.9 285.95 38.65 290.35 34.25 296.55 34.25
L 304.7 34.25
Q 305.1 34.25 305.4 33.95 305.7 33.65 305.7 33.25 305.7 32.85 305.4 32.55 305.1 32.25 304.7 32.25 Z"/>
</g>

<g id="Layer1_0_FILL">
<path fill="url(#Gradient_1)" stroke="none" d="
M 345.65 -13
L -9.1 -13
Q -25.1 -13 -25.1 3
L -25.1 85.1
Q -25.1 101.1 -9.1 101.1
L 345.65 101.1
Q 361.65 101.1 361.65 85.1
L 361.65 3
Q 361.65 -13 345.65 -13 Z"/>
</g>
</defs>

<mask id="Mask_Mask_1">
<g transform="matrix( 1, 0, 0, 1, 0,0) ">
<use xlink:href="#Mask_1_MASK_0_FILL"/>
</g>
</mask>

<g mask="url(#Mask_Mask_1)">
<g transform="matrix( 1, 0, 0, 1, 0,0) ">
<use xlink:href="#Layer1_0_FILL"/>
</g>
</g>
</svg>
